<svg width="48" height="48" viewBox="0 0 48 48" fill="none" xmlns="http://www.w3.org/2000/svg">
<path d="M16.9 33.5999L24 26.5L31.1 33.5999L33.6 31.1L26.5 24L33.6 16.9L31.1 14.4L24 21.5L16.9 14.4L14.4 16.9L21.5 24L14.4 31.1L16.9 33.5999ZM24 45.25C21.0667 45.25 18.3083 44.6999 15.725 43.5999C13.1417 42.4999 10.8833 40.9833 8.95 39.0499C7.01667 37.1166 5.5 34.8583 4.4 32.275C3.3 29.6916 2.75 26.9333 2.75 24C2.75 21.0333 3.3 18.2583 4.4 15.675C5.5 13.0916 7.01667 10.8416 8.95 8.92495C10.8833 7.00828 13.1417 5.49162 15.725 4.37495C18.3083 3.25828 21.0667 2.69995 24 2.69995C26.9667 2.69995 29.7417 3.25828 32.325 4.37495C34.9083 5.49162 37.1583 7.00828 39.075 8.92495C40.9917 10.8416 42.5083 13.0916 43.625 15.675C44.7417 18.2583 45.3 21.0333 45.3 24C45.3 26.9333 44.7417 29.6916 43.625 32.275C42.5083 34.8583 40.9917 37.1166 39.075 39.0499C37.1583 40.9833 34.9083 42.4999 32.325 43.5999C29.7417 44.6999 26.9667 45.25 24 45.25Z" fill="#B78F8F"/>
</svg>
