<svg width="42" height="42" viewBox="0 0 42 42" fill="none" xmlns="http://www.w3.org/2000/svg">
<path d="M21 42C15.1812 42 10.2266 39.9547 6.13594 35.8641C2.04531 31.7734 0 26.8187 0 21C0 15.1812 2.04531 10.2266 6.13594 6.13594C10.2266 2.04531 15.1812 0 21 0C24.7187 0 27.9781 0.754687 30.7781 2.26406C33.5781 3.77344 36.0062 5.84062 38.0625 8.46562V0H42V16.6687H25.3312V12.7312H36.3562C34.6937 10.1062 32.5719 7.98437 29.9906 6.36562C27.4094 4.74687 24.4125 3.9375 21 3.9375C16.2312 3.9375 12.1953 5.58906 8.89219 8.89219C5.58906 12.1953 3.9375 16.2312 3.9375 21C3.9375 25.7687 5.58906 29.8047 8.89219 33.1078C12.1953 36.4109 16.2312 38.0625 21 38.0625C24.6312 38.0625 27.9562 37.0234 30.975 34.9453C33.9937 32.8672 36.0938 30.1219 37.275 26.7094H41.3438C40.075 31.3031 37.5594 35 33.7969 37.8C30.0344 40.6 25.7687 42 21 42Z" fill="white"/>
</svg>
