<svg width="44" height="44" viewBox="0 0 44 44" fill="none" xmlns="http://www.w3.org/2000/svg">
<path d="M4.7 39.25C3.4 39.25 2.29167 38.7916 1.375 37.875C0.458333 36.9583 0 35.8499 0 34.5499V5.44995C0 4.14995 0.458333 3.03328 1.375 2.09995C2.29167 1.16662 3.4 0.699951 4.7 0.699951H29.95L38.55 9.29995V20.2999L19.6 39.25H4.7ZM7.35 15.25H25.25V8.09995H7.35V15.25ZM19.25 31.2999C20.6833 31.2999 21.9083 30.7916 22.925 29.775C23.9417 28.7583 24.45 27.5333 24.45 26.1C24.45 24.6666 23.9417 23.4416 22.925 22.4249C21.9083 21.4083 20.6833 20.9 19.25 20.9C17.8167 20.9 16.5917 21.4083 15.575 22.4249C14.5583 23.4416 14.05 24.6666 14.05 26.1C14.05 27.5333 14.5583 28.7583 15.575 29.775C16.5917 30.7916 17.8167 31.2999 19.25 31.2999ZM23.6 43.15V39.45L35.7 27.35L39.4 31L27.3 43.15H23.6ZM40.75 29.7L37.1 26L39 24.0499C39.3333 23.7166 39.6833 23.5499 40.05 23.5499C40.4167 23.5499 40.7833 23.7166 41.15 24.0499L42.6 25.5C42.9333 25.8666 43.1 26.2666 43.1 26.7C43.1 27.1333 42.9333 27.5333 42.6 27.9L40.75 29.7Z" fill="white"/>
</svg>
